# xmcd
#
# Track frame offsets: 
#        150
#        14532
#        27057
#        40140
#        56605
#        71825
#        83977
#        99102
#        111740
#        131202
#        143895
#
# Disc length: 2200 seconds
#
# Revision: 5
# Processed by: cddbd v1.5.2PL0 Copyright (c) Steve Scherf et al.
# Submitted via: ExactAudioCopy v1.1
#
DISCID=9b08960b
DTITLE=The Highwaymen - The Road Goes On Forever
DYEAR=1995
DGENRE=Country
TTITLE0=The Devil's Right Hand
TTITLE1=Live Forever
TTITLE2=Everyone Gets Crazy
TTITLE3=It Is What It Is
TTITLE4=I Do Believe
TTITLE5=The End Of Understanding
TTITLE6=True Love Travels A Gravel Road
TTITLE7=Death And Hell
TTITLE8=Waiting For A Long Time
TTITLE9=Here Comes That Rainbow Again
TTITLE10=The Road Goes On Forever
EXTD=
EXTT0=
EXTT1=
EXTT2=
EXTT3=
EXTT4=
EXTT5=
EXTT6=
EXTT7=
EXTT8=
EXTT9=
EXTT10=
PLAYORDER=
